<svg width="41" height="40" viewBox="0 0 41 40" fill="none" xmlns="http://www.w3.org/2000/svg">
<path d="M34.1009 23.0771H18.7604L19.2304 22.6252L23.2425 18.7676C24.863 19.5522 26.6485 19.9706 28.4627 19.9906C30.2888 19.9953 32.0808 19.5148 33.6409 18.6022C38.385 15.8407 40.9271 9.44846 40.4411 1.50241C40.4182 1.12604 40.2524 0.770844 39.9751 0.504257C39.6979 0.23767 39.3285 0.0782541 38.937 0.0562747C30.6728 -0.409104 24.0245 2.03317 21.1525 6.59465C19.2804 9.56576 19.2324 13.1542 20.9785 16.5945L18.1004 19.3618L15.6583 17.0137C16.8583 14.4657 16.7723 11.8215 15.3803 9.61384C13.2062 6.15427 8.22206 4.31006 2.04587 4.65814C1.6551 4.68052 1.28643 4.83987 1.00963 5.10601C0.732829 5.37215 0.567103 5.72663 0.54382 6.10235C0.179808 12.0388 2.09987 16.8311 5.69998 18.9233C6.90441 19.6304 8.28891 20.0032 9.7001 20.0002C10.9804 19.988 12.2432 19.7133 13.4042 19.1945L15.8363 21.5387L14.2362 23.0771H5.29997C4.87561 23.0771 4.46863 23.2392 4.16856 23.5277C3.86849 23.8162 3.69992 24.2075 3.69992 24.6156C3.69992 25.0236 3.86849 25.4149 4.16856 25.7034C4.46863 25.9919 4.87561 26.154 5.29997 26.154H7.21803L9.86011 37.5904C10.015 38.2753 10.4098 38.8884 10.9784 39.327C11.5471 39.7656 12.2552 40.0032 12.9842 40H26.4186C27.1476 40.0032 27.8557 39.7656 28.4244 39.327C28.9931 38.8884 29.3879 38.2753 29.5427 37.5904L32.1848 26.154H34.1009C34.5252 26.154 34.9322 25.9919 35.2323 25.7034C35.5323 25.4149 35.7009 25.0236 35.7009 24.6156C35.7009 24.2075 35.5323 23.8162 35.2323 23.5277C34.9322 23.2392 34.5252 23.0771 34.1009 23.0771ZM23.9005 8.18886C25.9926 4.86967 30.9488 2.99662 37.301 3.07931C37.383 9.19654 35.4389 13.9599 31.9868 15.9638C29.6847 17.3099 26.9066 17.2214 24.1306 15.7368C22.5845 13.0773 22.5005 10.4023 23.9005 8.18886ZM12.5222 16.1753C10.6821 17.1234 8.86008 17.1676 7.35603 16.2907C5.05596 14.9503 3.72992 11.7907 3.69992 7.69271C7.96205 7.72156 11.2502 8.99654 12.6422 11.208C13.5542 12.6542 13.5002 14.4061 12.5222 16.1753ZM26.4186 36.9231H12.9842L10.5001 26.154H28.9007L26.4186 36.9231Z" fill="#808080"/>
</svg>
